<svg width="146" height="146" viewBox="0 0 146 146" fill="none" xmlns="http://www.w3.org/2000/svg">
<circle cx="72.775" cy="72.775" r="72.775" fill="#D7B389"/>
<mask id="mask0_39_16" style="mask-type:alpha" maskUnits="userSpaceOnUse" x="0" y="0" width="146" height="146">
<circle cx="72.775" cy="72.775" r="72.775" fill="#D7B389"/>
</mask>
<g mask="url(#mask0_39_16)">
<path fill-rule="evenodd" clip-rule="evenodd" d="M66.9541 12.2795C63.5674 12.7172 59.6013 15.09 58.7269 17.2015C58.3521 18.1062 54.1312 21.8469 53.4852 21.8469C52.9035 21.8469 50.4739 23.8535 50.4739 24.3341C50.4739 24.6123 50.1987 25.3898 49.8622 26.0625C49.526 26.7349 49.1588 27.7666 49.0468 28.3549C48.9017 29.1166 48.1374 30.0975 46.3912 31.7636C44.1499 33.9024 43.812 34.4044 42.4524 37.6157C40.3532 42.5739 39.9698 43.9576 39.4372 48.5012C39.1785 50.7095 38.8736 52.6667 38.7599 52.8506C38.6462 53.0349 38.5018 53.9584 38.4395 54.9027C38.3769 55.8474 38.1874 58.5481 38.0186 60.9048C37.8231 63.629 37.8274 65.801 38.0301 66.8683C38.2912 68.2427 38.248 68.7424 37.7922 69.6238C36.8854 71.3776 37.04 76.4877 38.0875 79.3919C38.5437 80.6562 39.1383 82.7443 39.4092 84.032C40.3459 88.4853 41.2939 90.2272 43.0243 90.6755C44.0971 90.9537 44.0902 90.9378 44.9014 94.8539C45.1265 95.9415 45.4261 96.9851 45.5668 97.1726C46.1186 97.9083 47.5435 102.341 47.4459 103.018C47.3763 103.502 46.4116 104.351 44.4847 105.624C40.5776 108.204 37.8288 111.038 35.5459 114.837C34.4975 116.583 33.3653 118.259 33.0307 118.562C32.447 119.09 25.9624 121.716 25.2419 121.716C25.0501 121.716 24.3905 121.346 23.7761 120.892C22.4815 119.937 21.0154 119.836 19.2336 120.58C17.8997 121.136 16.5555 122.549 16.5368 123.415C16.5223 124.073 14.921 124.683 13.2071 124.683C12.5238 124.683 10.4137 125.202 8.51753 125.836C6.62166 126.471 4.82928 126.99 4.53494 126.99C4.0534 126.99 4 127.962 4 136.713V146.437H72.3925H140.785V136.741V127.046L139.255 125.7C138.414 124.959 137.509 124.353 137.245 124.353C136.981 124.353 135.926 123.837 134.902 123.206C132.675 121.833 129.476 120.544 127.151 120.08C126.22 119.894 124.124 119.371 122.492 118.918C120.861 118.464 117.869 117.805 115.845 117.453C113.821 117.101 111.596 116.671 110.901 116.499C110.206 116.326 108.451 116.011 107.001 115.8C104.565 115.444 101.774 114.769 100.014 114.108C99.0227 113.736 98.3352 112.59 97.8507 110.505C97.531 109.13 97.2271 108.619 96.4535 108.154C95.9097 107.828 95.1163 107.044 94.6905 106.413L93.9162 105.265L94.6347 104.256C95.0299 103.701 95.6249 102.475 95.9571 101.532C96.2893 100.589 96.6921 99.7732 96.8526 99.7198C97.0128 99.6664 97.082 99.0922 97.0062 98.4439C96.9057 97.5836 97.0702 96.9926 97.615 96.256C98.2366 95.4152 98.295 95.1403 97.9641 94.6103C97.3625 93.6472 97.8457 92.1999 99.0847 91.2549C99.7159 90.7734 100.362 89.8795 100.59 89.1718C100.809 88.4899 101.103 87.7839 101.242 87.6026C102.701 85.7021 103.963 70.045 102.995 65.8488C102.44 63.4434 101.823 57.1622 102.098 56.7175C102.228 56.5079 102.306 55.2528 102.272 53.9284C102.238 52.6044 102.378 50.8499 102.585 50.0299C103.259 47.3509 101.896 40.9968 100.178 38.8125C99.2887 37.682 97.2782 33.503 97.2752 32.7795C97.2742 32.4769 96.9786 31.7844 96.6183 31.2406C96.258 30.6967 95.9624 29.992 95.9614 29.675C95.9597 29.292 95.702 29.0982 95.1944 29.0982C94.2781 29.0982 91.8506 27.0994 91.1713 25.7853C90.904 25.2688 90.6855 24.3196 90.6855 23.6762C90.6855 22.5691 90.6261 22.5061 89.5829 22.5061C88.5361 22.5061 87.3894 21.7111 87.3894 20.9856C87.3894 20.5496 84.0684 16.9029 83.6715 16.9029C83.4942 16.9029 82.7747 16.3837 82.0723 15.7492C81.1807 14.9437 80.4813 14.5956 79.7542 14.5956C79.1642 14.5956 78.0571 14.1754 77.2008 13.6263C74.7482 12.0541 71.7485 11.6599 66.9541 12.2795Z" fill="#D8DADF"/>
<path fill-rule="evenodd" clip-rule="evenodd" d="M68.7768 12.2929C68.2329 12.4313 67.1812 12.5622 66.4399 12.5836C63.8641 12.6581 58.7239 16.0599 58.7239 17.6901C58.7239 18.2524 54.4928 21.6803 53.0402 22.295C52.4499 22.5449 51.734 23.0294 51.4489 23.3715C50.701 24.2697 49.1654 27.9022 49.1654 28.7727C49.1654 29.2714 48.3421 30.2823 46.6492 31.8627C44.6238 33.7533 43.9185 34.6821 43.0315 36.6251C41.2082 40.6193 39.9791 44.9697 39.4095 49.445C39.1145 51.7621 38.7329 54.7704 38.5615 56.13C38.0806 59.9425 37.9293 65.9011 38.2747 67.4367C38.5255 68.5537 38.4784 68.9783 38.0298 69.6437C37.5901 70.2957 37.4767 71.2245 37.486 74.0934C37.4962 77.2368 37.6102 77.982 38.3439 79.6966C38.809 80.7843 39.2879 82.3417 39.4075 83.1574C39.7395 85.4185 40.9303 88.8394 41.6676 89.6499C42.0299 90.0484 42.7385 90.465 43.2418 90.5755C44.3249 90.8134 44.7408 91.7179 45.055 94.5182C45.1835 95.6642 45.5372 96.8181 45.902 97.2819C46.2468 97.7199 46.5286 98.3027 46.5286 98.5769C46.5286 98.8511 46.843 99.9381 47.2277 100.993C47.612 102.047 47.8447 103.123 47.7445 103.385C47.6443 103.646 46.1667 104.764 44.4607 105.869C40.6244 108.354 37.923 111.149 35.8291 114.799C34.9451 116.34 33.9872 117.876 33.7008 118.213C33.0007 119.035 31.446 119.797 27.9651 121.024L25.0576 122.049L23.9789 121.226C22.7198 120.265 20.371 120.106 18.8746 120.88C17.8888 121.39 16.7322 122.891 16.7118 123.687C16.6976 124.249 14.6129 124.955 12.8564 124.992C12.1929 125.005 10.3323 125.448 8.72156 125.974C7.11079 126.5 5.42883 126.982 4.98386 127.045L4.17469 127.159L4.08734 136.8L4 146.441H72.3975H140.795V136.924V127.408L139.359 126.084C138.569 125.356 137.467 124.66 136.91 124.538C136.352 124.415 135.704 124.084 135.469 123.801C134.887 123.099 130.75 121.173 128.929 120.757C125.435 119.958 124.683 119.77 122.337 119.115C120.978 118.736 118.234 118.126 116.24 117.76C114.245 117.395 112.391 117.025 112.12 116.94C111.848 116.855 109.623 116.421 107.175 115.975C100.187 114.702 99.9618 114.635 98.7683 113.479C98.1612 112.89 97.6651 112.168 97.6658 111.873C97.6668 111.579 97.5923 110.893 97.5 110.35C97.408 109.806 97.3227 109.253 97.3101 109.122C97.2976 108.991 96.8513 108.658 96.3184 108.382C95.7851 108.106 95.0856 107.435 94.764 106.89C94.4423 106.346 93.9897 105.9 93.7587 105.9C93.497 105.9 93.7214 105.277 94.3526 104.251C96.0738 101.454 97.1101 97.922 96.4136 97.2255C96.0906 96.9025 95.3322 98.0525 95.3203 98.8831C95.3144 99.2836 95.1097 99.7984 94.8651 100.027C94.6206 100.255 94.4831 100.681 94.5596 100.974C94.6453 101.301 94.4937 101.505 94.1661 101.505C93.8477 101.505 93.704 101.322 93.8088 101.049C93.905 100.797 93.8371 100.683 93.6581 100.793C93.1466 101.11 93.2758 101.991 93.909 102.503C94.4294 102.924 94.4136 102.935 93.7442 102.611C93.195 102.345 93.0026 102.35 93.0026 102.633C93.0026 102.909 92.8661 102.901 92.5082 102.604C91.936 102.129 91.8723 102.383 92.343 103.263C92.6064 103.755 92.5395 103.92 92.0088 104.089C91.6436 104.205 91.43 104.437 91.5339 104.605C91.638 104.773 91.5573 104.911 91.3545 104.911C91.1518 104.911 91.08 105.063 91.1947 105.249C91.3097 105.435 91.2072 105.546 90.9669 105.496C90.7187 105.444 90.5694 105.642 90.6208 105.954C90.6848 106.343 90.5338 106.455 90.0988 106.342C89.7622 106.253 89.4867 105.984 89.4867 105.742C89.4867 105.501 89.6479 105.365 89.8446 105.441C90.3727 105.644 91.0111 104.435 90.8008 103.631C90.7006 103.247 90.3763 102.945 90.08 102.96C89.7385 102.976 89.6924 103.046 89.9537 103.152C90.1805 103.243 90.3486 103.64 90.3275 104.032C90.2975 104.589 90.2563 104.62 90.1386 104.17C90.0556 103.853 89.8344 103.593 89.6472 103.593C89.4597 103.593 89.3875 103.804 89.487 104.063C89.7148 104.657 88.8796 105.38 88.3466 105.05C88.0684 104.879 88.0127 104.975 88.1637 105.369C88.3097 105.75 88.256 105.857 87.9989 105.698C87.7378 105.537 87.689 105.65 87.8453 106.057C88.0279 106.533 87.9834 106.578 87.6238 106.279C87.3762 106.074 87.0974 105.982 87.0038 106.076C86.9105 106.169 86.6274 105.982 86.3752 105.661C85.9491 105.118 85.9619 105.111 86.5545 105.57C87.1409 106.024 87.1739 106.014 86.959 105.442C86.7602 104.912 86.8008 104.881 87.2266 105.234C87.6646 105.598 87.7002 105.51 87.5064 104.541C87.3845 103.93 87.0806 103.227 86.8314 102.978C86.4468 102.593 86.4138 102.668 86.6149 103.47L86.8518 104.417L85.9718 103.428L85.0918 102.439L85.2094 103.658C85.3251 104.858 84.7994 105.506 84.0736 105.058C83.9085 104.956 83.7737 104.96 83.7737 105.067C83.7737 105.174 84.0835 105.377 84.4619 105.517C85.1155 105.759 85.1208 105.795 84.5634 106.248C84.2015 106.541 84.0716 106.566 84.2243 106.312C84.3604 106.085 84.3373 105.9 84.1732 105.9C84.0087 105.9 83.7117 106.234 83.513 106.642C83.1952 107.293 83.1718 107.243 83.3195 106.23C83.4576 105.284 83.4207 105.181 83.1161 105.66C82.9118 105.981 82.5835 106.144 82.3874 106.023C82.1412 105.871 82.1105 106.099 82.2885 106.757C82.4309 107.283 82.5367 108.42 82.5238 109.284C82.5083 110.335 82.6188 110.782 82.8584 110.634C83.0723 110.502 83.1214 110.566 82.9807 110.794C82.8152 111.062 82.5598 111.076 82.1234 110.843C81.6431 110.586 81.4249 110.642 81.1646 111.089C80.979 111.408 80.8228 111.539 80.8172 111.381C80.8119 111.222 80.598 111.267 80.3422 111.479C79.9862 111.774 79.8198 111.772 79.6326 111.469C79.3623 111.032 80.4032 110.1 80.8521 110.377C81.0047 110.472 81.0403 110.317 80.9315 110.033C80.8224 109.749 80.9025 109.314 81.1088 109.065C81.4062 108.707 81.3155 108.57 80.6731 108.409C80.1052 108.267 79.8251 107.934 79.7384 107.3C79.6108 106.368 79.5215 106.487 78.9569 108.345C78.5594 109.654 77.8339 109.854 77.8639 108.647C77.8844 107.828 77.9219 107.794 78.1704 108.372C78.4796 109.091 78.622 108.646 78.5129 107.301C78.4793 106.884 78.6434 106.55 78.8883 106.538C79.1279 106.527 78.9905 106.383 78.5824 106.219C78.1645 106.051 77.8408 105.637 77.8408 105.271C77.8408 104.913 77.71 104.54 77.5498 104.441C77.2133 104.233 77.2897 105.934 77.6424 106.505C77.9285 106.968 77.5811 107.63 77.1816 107.383C77.0254 107.287 76.8029 107.361 76.6872 107.548C76.5715 107.735 76.3388 107.803 76.1701 107.699C76.0013 107.594 75.8632 107.815 75.8632 108.188C75.8632 108.561 75.706 108.866 75.5142 108.866C75.3223 108.866 75.2489 108.731 75.3514 108.565C75.4539 108.399 75.3932 108.214 75.2165 108.153C75.0399 108.092 74.8599 107.571 74.8164 106.994C74.7732 106.417 74.6308 106.012 74.5003 106.092C74.2099 106.272 73.7788 105.021 74.0049 104.655C74.4476 103.939 72.6189 104.494 71.8787 105.3L71.0253 106.23L71.0669 105.037C71.0945 104.239 71.3493 103.649 71.8378 103.254C72.2389 102.929 72.5672 102.501 72.5672 102.304C72.5672 101.799 72.9535 101.856 73.8668 102.496C74.4239 102.886 74.5705 102.912 74.3678 102.584C73.8105 101.682 74.0072 100.919 75.0936 99.7674C76.3088 98.4787 76.3797 98.1876 75.7851 96.9276C75.3418 95.9879 73.85 95.5432 73.1859 96.1527C72.9087 96.4068 72.8592 96.4005 73.0099 96.1312C73.2169 95.7614 72.4772 95.5261 69.9304 95.152C69.2959 95.0587 68.4719 94.8336 68.0994 94.6517C67.7267 94.47 67.2817 94.3468 67.1106 94.3781C66.6508 94.4625 65.3143 93.9908 65.3265 93.7485C65.3509 93.2601 66.254 92.3863 66.7346 92.3863C67.0213 92.3863 67.4834 92.0616 67.7613 91.6651C68.0391 91.2686 68.4554 90.9064 68.6865 90.8602C68.9175 90.8144 69.7738 90.6358 70.5896 90.4641C72.0448 90.1572 72.051 90.1503 70.9192 90.1048C70.2847 90.0791 69.5062 89.8612 69.1888 89.6203C68.4709 89.0751 68.406 88.0431 69.1064 88.3118C69.3783 88.4162 69.6008 88.3322 69.6008 88.1249C69.6008 87.9179 70.257 87.4673 71.0589 87.1235C72.2986 86.5919 72.4921 86.3836 72.35 85.7343C72.1875 84.991 72.1951 84.9927 72.6298 85.79C73.0399 86.5421 73.2745 86.6123 75.4588 86.637C76.8052 86.6525 77.8408 86.5246 77.8408 86.343C77.8408 86.1664 78.1121 86.2672 78.4437 86.5672C79.1942 87.2465 79.8185 87.2696 79.8185 86.6183C79.8185 86.0174 80.5149 85.9729 81.1135 86.5359C81.4747 86.8753 81.508 86.7742 81.303 85.9591C81.1662 85.4152 81.0492 84.7478 81.0433 84.4758C81.0373 84.2039 80.7591 83.7876 80.4253 83.5506C79.6556 83.0045 79.6362 82.4616 80.3953 82.7003C80.7127 82.8001 80.564 82.6126 80.0657 82.284C79.5673 81.9554 79.1543 81.461 79.1484 81.1858C79.1319 80.4376 77.9143 79.1178 77.4852 79.3832C77.2064 79.5555 77.2064 79.6729 77.4855 79.8456C77.7215 79.9913 77.5521 80.2167 77.0261 80.4563C76.3316 80.7728 76.1928 80.7517 76.1928 80.3294C76.1928 80.0506 76.3412 79.9141 76.5224 80.0262C76.7037 80.1383 76.852 80.0974 76.852 79.9359C76.852 79.7741 76.4071 79.6416 75.8632 79.6416C75.1068 79.6416 74.8744 79.7909 74.8744 80.2767C74.8744 80.631 74.588 80.987 74.2261 81.0816C73.8695 81.1745 73.4851 81.5427 73.3721 81.8993C73.2587 82.256 73.0909 82.4725 72.9987 82.3802C72.9064 82.2883 73.0102 81.6699 73.229 81.0068C73.5204 80.1244 73.5293 79.7029 73.262 79.4356C72.9947 79.1682 72.8889 79.2872 72.8671 79.8779C72.8428 80.5381 72.7772 80.4748 72.5079 79.5318C72.3266 78.8973 72.0062 78.1686 71.7959 77.9125C71.5036 77.5568 71.5108 77.4144 71.8256 77.3083C72.5576 77.0618 72.264 75.3821 71.2419 73.9711C70.4324 72.8537 70.2142 72.1708 70.0771 70.3224C69.9719 68.9081 70.0388 67.9677 70.2541 67.8345C70.4446 67.7169 70.5329 67.5115 70.4505 67.378C70.3678 67.2446 70.4241 66.5867 70.5754 65.9156C70.7452 65.1638 70.7264 64.6193 70.5266 64.496C70.3483 64.3859 70.2758 64.0161 70.3651 63.674C70.4545 63.3322 70.3928 62.969 70.2277 62.8671C70.0629 62.7649 70.0052 62.3572 70.0998 61.9604C70.4696 60.4069 70.672 58.8611 70.7122 57.284C70.7356 56.3776 70.9027 55.6231 71.084 55.6073C71.2653 55.5915 71.6905 55.4576 72.029 55.31C73.1483 54.8208 74.3507 55.5262 74.5613 56.7955C74.6658 57.4267 75.1183 58.5361 75.5663 59.2613C76.0145 59.9864 76.9542 61.8404 77.6546 63.3813C78.3554 64.9222 79.24 66.4469 79.6207 66.7696C82.1155 68.884 85.276 69.8395 88.3881 69.4199L90.2009 69.1757L87.5641 68.9427C83.5571 68.5887 81.3923 67.6467 79.832 65.5787C79.1253 64.642 78.2838 63.1341 77.9621 62.2277C77.2169 60.1268 77.2034 56.6577 77.9351 55.2628C78.9707 53.2885 81.361 51.8109 82.6926 52.3218C83.1791 52.5087 83.1913 52.5838 82.7757 52.8465C82.3801 53.0967 82.4124 53.1583 82.9497 53.1798C84.5974 53.2457 87.3433 53.5575 88.4623 53.806C89.6231 54.0638 89.6709 54.0427 89.3367 53.4181C89.0598 52.9009 89.0796 52.7895 89.4274 52.9042C89.6716 52.985 90.0546 53.4098 90.2784 53.8488C90.608 54.4949 90.6864 54.5308 90.6904 54.0374C90.6976 53.1481 88.8588 51.5762 87.633 51.4233C86.8663 51.3277 87.0209 51.277 88.1943 51.2387C91.578 51.1286 95.4723 53.2127 96.5062 55.6874C97.1157 57.1455 97.0764 60.3697 96.4258 62.2985C95.6938 64.47 94.0141 66.6585 92.2046 67.7989C91.3697 68.3253 90.7468 68.8161 90.8203 68.8896C91.0602 69.1299 93.3322 68.0386 93.3322 67.6829C93.3322 67.4924 93.4752 67.3734 93.6499 67.4189C94.1331 67.5442 96.2083 65.0942 96.9947 63.4699C97.3784 62.6773 97.7676 62.1034 97.8592 62.1954C98.3569 62.6931 98.9258 66.6147 98.9301 69.5808C98.9338 71.7974 99.0517 72.9068 99.2703 72.7717C99.4545 72.6576 99.5336 72.4483 99.4456 72.3063C99.358 72.1642 99.5158 71.7667 99.797 71.4226C100.175 70.9598 100.266 70.9335 100.146 71.3217C100.058 71.6101 100.099 72.0297 100.238 72.2545C100.4 72.5165 100.567 72.2822 100.703 71.6009C100.82 71.0142 100.762 70.3534 100.573 70.1259C100.328 69.8306 100.398 69.5465 100.819 69.1253C101.345 68.5989 101.418 68.5933 101.51 69.0702C101.604 69.5547 101.664 69.5528 102.172 69.0468C102.66 68.561 102.699 68.0712 102.478 65.1941C102.339 63.3813 102.086 60.8694 101.917 59.6119C101.748 58.3545 101.685 57.2026 101.778 57.0526C101.99 56.7101 102.107 55.3861 102.384 50.1972C102.575 46.6226 102.514 45.7278 101.918 43.4403C101.51 41.8718 100.78 40.1361 100.116 39.1555C98.7831 37.1858 96.9578 33.5935 96.9578 32.9385C96.9578 32.195 95.7063 29.6013 95.3256 29.5558C95.1357 29.5331 94.8266 29.4962 94.6387 29.4734C93.9867 29.3947 89.0473 24.1714 89.0473 23.5604C89.0473 23.2225 88.6765 22.7769 88.2233 22.5706C87.7701 22.3639 87.3993 21.9819 87.3993 21.7215C87.3993 21.4611 87.1079 20.9018 86.752 20.4786C86.3957 20.0554 85.6982 19.2066 85.2015 18.5929C84.7051 17.9792 83.8034 17.2699 83.1979 17.0168C82.5924 16.764 82.0133 16.3391 81.9114 16.0728C81.8093 15.8068 81.4447 15.5889 81.1016 15.5889C80.7585 15.5889 80.4777 15.4452 80.4777 15.2695C80.4777 15.0942 80.2881 15.023 80.0568 15.112C79.8251 15.201 78.6586 14.6842 77.4641 13.964C75.6678 12.8803 74.8167 12.5945 72.5379 12.3087C71.0227 12.1189 69.7791 11.9808 69.7742 12.0022C69.7695 12.0236 69.3206 12.1545 68.7768 12.2929ZM90.0622 24.3507C90.078 24.7347 90.1561 24.8128 90.2613 24.5502C90.3565 24.3122 90.3446 24.0277 90.2352 23.9183C90.1258 23.8089 90.048 24.0033 90.0622 24.3507ZM82.3023 28.2394C82.513 28.5271 82.7796 28.6685 82.895 28.5532C83.2028 28.2453 86.3406 30.4345 88.0994 32.1841C91.198 35.2669 94.8117 41.4077 95.8068 45.2818C96.1054 46.4443 96.4865 47.5363 96.6536 47.7087C96.821 47.8811 96.9578 48.3428 96.9578 48.7354C96.9578 49.128 97.2544 49.8261 97.617 50.2872C97.9796 50.7479 98.2752 51.3983 98.2739 51.7325C98.2722 52.1952 98.1163 52.1046 97.617 51.3508L96.9621 50.362L96.9601 51.4332C96.9588 52.0222 96.8777 52.5044 96.7795 52.5044C96.6816 52.5044 95.7544 52.0677 94.7195 51.5341C93.2669 50.7852 92.0859 50.4843 89.5417 50.2153C84.8597 49.7202 81.8297 50.1273 78.7064 51.6705C77.1358 52.4467 75.998 52.8165 75.5857 52.6857C75.2284 52.5723 73.4762 52.4672 71.6918 52.4517C68.6067 52.425 68.3575 52.3689 66.6241 51.3079C64.1567 49.7984 63.0747 49.539 59.2206 49.533C57.2516 49.5301 56.1026 49.4137 56.3695 49.2446C56.6863 49.0439 56.7087 48.8946 56.4463 48.7324C56.243 48.6065 56.1678 48.3557 56.2796 48.1747C56.3913 47.9938 56.2782 47.8929 56.0281 47.9503C55.7779 48.0076 55.5277 47.9064 55.4724 47.7252C55.2522 47.0033 54.6464 46.566 54.1052 46.7377C53.6329 46.8876 53.5551 46.7426 53.654 45.8952C53.7195 45.3322 53.8573 44.735 53.9608 44.5679C54.064 44.4011 53.974 44.2643 53.7607 44.2643C53.5356 44.2643 53.4456 43.9881 53.5458 43.6051C53.7324 42.8909 53.2815 42.6832 53.0093 43.3579C52.918 43.5847 52.8313 43.4275 52.8171 43.0089C52.8029 42.5903 52.9226 42.3292 53.0834 42.4285C53.5633 42.7251 54.2743 41.5969 54.1596 40.7208C54.091 40.198 54.181 39.9848 54.4107 40.1268C54.6075 40.2485 54.7687 40.1822 54.7687 39.9795C54.7687 39.7768 54.9074 39.6967 55.0772 39.8015C55.2469 39.9063 55.4872 39.3147 55.6115 38.4864C55.7357 37.6581 56.01 36.8025 56.2212 36.5846C56.4325 36.3671 56.6289 35.8417 56.6576 35.4175C56.7196 34.5018 57.6036 33.0579 58.1019 33.0579C58.5383 33.0579 59.687 31.7134 59.7018 31.1847C59.7078 30.9705 60.0093 30.7009 60.3719 30.5858C60.7345 30.4708 61.0311 30.2707 61.0311 30.1412C61.0311 29.5687 66.4432 28.5542 71.1166 28.2513C72.7304 28.1464 74.1793 27.9365 74.3365 27.7845C74.4941 27.6329 76.2644 27.5551 78.2713 27.6122C81.1392 27.6936 82.0014 27.8277 82.3023 28.2394ZM54.9546 45.8158C54.7759 46.2855 54.8135 46.3234 55.1391 46.0004C55.3646 45.7766 55.4658 45.5106 55.3643 45.4094C55.2627 45.3079 55.0785 45.4908 54.9546 45.8158ZM99.0056 50.1507C98.8695 50.5126 98.7831 50.5024 98.556 50.0967C98.4014 49.8204 98.3754 49.3333 98.498 49.0136C98.705 48.4743 98.7373 48.478 98.9473 49.0676C99.0719 49.417 99.0979 49.9045 99.0056 50.1507ZM87.2474 52.8551C87.395 53.0937 87.0595 53.1323 86.1956 52.9761C84.5127 52.6715 84.3871 52.5044 85.8416 52.5044C86.4959 52.5044 87.1284 52.6623 87.2474 52.8551ZM99.8128 53.5756C99.7215 53.8024 99.6467 53.6168 99.6467 53.1636C99.6467 52.7104 99.7215 52.5252 99.8128 52.7516C99.9044 52.9784 99.9044 53.3492 99.8128 53.5756ZM74.38 53.1636C74.4921 53.3449 74.4265 53.4932 74.2347 53.4932C74.0428 53.4932 73.8856 53.3449 73.8856 53.1636C73.8856 52.9823 73.9509 52.834 74.031 52.834C74.1111 52.834 74.268 52.9823 74.38 53.1636ZM60.8215 54.3192C61.3409 54.5901 61.8887 54.8116 62.0394 54.8116C62.4606 54.8116 64.8664 57.1103 64.4919 57.1554C64.3107 57.1772 64.014 57.2293 63.8327 57.2714C63.6515 57.3136 63.0048 57.3707 62.3953 57.3983C61.3011 57.4478 61.2958 57.4554 61.9649 58.0252C62.337 58.3427 62.6874 58.8987 62.7427 59.2613C62.834 59.8555 62.6818 59.9116 61.1959 59.8305C58.3399 59.6749 57.275 59.4247 57.6922 59.0075C57.8969 58.8028 58.0647 58.5272 58.0647 58.3954C58.0647 58.0338 56.0498 57.103 55.715 57.3097C55.2769 57.5806 54.9575 56.4685 55.3583 56.0677C55.5495 55.8766 55.6388 55.545 55.5564 55.3307C55.3504 54.7935 57.3228 53.869 58.7239 53.8459C59.3584 53.8353 60.3024 54.0486 60.8215 54.3192ZM101.512 54.9379C101.454 54.9711 101.148 55.1969 100.831 55.4395C100.335 55.8192 100.254 55.8031 100.254 55.3268C100.254 55.0222 100.402 54.8644 100.583 54.9764C100.765 55.0885 100.913 55.0143 100.913 54.8116C100.913 54.6089 101.071 54.541 101.265 54.6603C101.458 54.78 101.569 54.9049 101.512 54.9379ZM99.5946 55.3255C99.5946 55.6079 99.4463 55.7477 99.265 55.6356C99.0837 55.5236 98.9354 55.2925 98.9354 55.1218C98.9354 54.951 99.0837 54.8116 99.265 54.8116C99.4463 54.8116 99.5946 55.043 99.5946 55.3255ZM101.572 56.13C101.572 56.3113 101.424 56.4596 101.243 56.4596C101.061 56.4596 100.913 56.3113 100.913 56.13C100.913 55.9487 101.061 55.8004 101.243 55.8004C101.424 55.8004 101.572 55.9487 101.572 56.13ZM48.405 58.019C48.3213 58.3397 48.2475 58.1571 48.2409 57.6132C48.2343 57.0694 48.3025 56.807 48.3928 57.0302C48.4832 57.2533 48.4888 57.6983 48.405 58.019ZM99.9038 59.1446C100.104 60.0773 100.19 60.9178 100.096 61.0124C100.001 61.1067 99.9137 60.8997 99.9011 60.5523C99.8791 59.9485 99.8652 59.9498 99.5946 60.5797C99.3141 61.2323 99.3112 61.2323 99.2881 60.5632C99.2756 60.1914 99.0979 59.7204 98.8935 59.516C98.4848 59.1073 98.766 57.4484 99.2439 57.4484C99.4067 57.4484 99.7037 58.2118 99.9038 59.1446ZM80.7249 58.5665C79.9111 59.1841 79.9661 60.4149 80.8073 60.4149C81.1698 60.4149 81.4665 60.2665 81.4665 60.0853C81.4665 59.904 81.6843 59.7557 81.9507 59.7557C82.2588 59.7557 82.361 59.5642 82.2321 59.228C82.1207 58.9379 82.2368 58.5691 82.4896 58.4089C82.8264 58.1956 82.7288 58.1192 82.1257 58.1231C81.6725 58.1261 81.0423 58.3255 80.7249 58.5665ZM101.138 59.1584C101.033 59.4211 100.955 59.343 100.939 58.959C100.925 58.6116 101.003 58.4171 101.112 58.5266C101.222 58.636 101.233 58.9204 101.138 59.1584ZM48.4017 60.1472C48.2966 60.4099 48.2185 60.3318 48.2027 59.9478C48.1885 59.6004 48.2663 59.4059 48.3757 59.5154C48.4851 59.6248 48.497 59.9093 48.4017 60.1472ZM66.964 59.9205C66.964 60.1924 66.8156 60.4149 66.6344 60.4149C66.4531 60.4149 66.3048 60.1924 66.3048 59.9205C66.3048 59.6485 66.4531 59.4261 66.6344 59.4261C66.8156 59.4261 66.964 59.6485 66.964 59.9205ZM81.9609 60.6598C81.0808 61.1604 81.0466 61.2339 81.6497 61.3275C82.0845 61.3951 82.4388 61.8114 82.6385 62.4894C82.9437 63.526 82.9873 63.5461 84.9194 63.5461C86.8162 63.5461 86.901 63.5095 87.2134 62.5573C87.662 61.1894 87.6254 61.2033 88.7042 62.0009C89.2362 62.3941 89.752 62.5856 89.8502 62.4268C90.2843 61.7244 87.664 60.6301 84.7625 60.3021C83.3745 60.1449 82.718 60.229 81.9609 60.6598ZM60.7015 60.7445C60.7015 60.9257 60.5443 61.0741 60.3525 61.0741C60.1606 61.0741 60.095 60.9257 60.2071 60.7445C60.3192 60.5632 60.4761 60.4149 60.5562 60.4149C60.6363 60.4149 60.7015 60.5632 60.7015 60.7445ZM62.6791 61.3766C62.6791 61.9472 62.279 62.7221 61.9847 62.7221C61.8228 62.7221 61.6903 62.3513 61.6903 61.8981C61.6903 61.3852 61.8772 61.0741 62.1847 61.0741C62.4566 61.0741 62.6791 61.2102 62.6791 61.3766ZM86.6969 61.5164C86.8987 61.7596 86.9751 62.0477 86.8667 62.1562C86.6346 62.3882 85.4217 61.6901 85.4217 61.3242C85.4217 60.9099 86.3037 61.0428 86.6969 61.5164ZM80.8073 62.0434C80.8073 62.2142 80.9539 62.4442 81.1332 62.555C81.3198 62.6703 81.3752 62.5382 81.2628 62.2448C81.0436 61.6739 80.8073 61.5695 80.8073 62.0434ZM84.2681 63.0517C84.3802 63.233 84.3146 63.3813 84.1227 63.3813C83.9309 63.3813 83.7737 63.233 83.7737 63.0517C83.7737 62.8704 83.8389 62.7221 83.919 62.7221C83.9991 62.7221 84.156 62.8704 84.2681 63.0517ZM61.0311 63.8951C61.0311 64.1776 60.8828 64.3174 60.7015 64.2053C60.5202 64.0932 60.3719 63.8622 60.3719 63.6914C60.3719 63.5207 60.5202 63.3813 60.7015 63.3813C60.8828 63.3813 61.0311 63.6127 61.0311 63.8951ZM100.149 64.7617C100.044 65.0244 99.9661 64.9462 99.9503 64.5622C99.9361 64.2148 100.014 64.0204 100.123 64.1298C100.233 64.2392 100.245 64.5237 100.149 64.7617ZM102.208 66.2653C102.221 66.8543 102.083 67.3365 101.902 67.3365C101.721 67.3365 101.583 66.5577 101.595 65.6061C101.612 64.3352 101.694 64.0507 101.902 64.5349C102.058 64.8975 102.195 65.6763 102.208 66.2653ZM61.9563 65.5715C63.9138 67.1931 63.2513 67.8546 59.3831 68.1414C56.2993 68.3698 55.3662 68.1045 56.2275 67.2432C56.5129 66.9578 56.7463 66.494 56.7463 66.2126C56.7463 65.7053 58.0298 65.202 59.1293 65.2775C59.4431 65.2992 59.7855 65.1779 59.8904 65.0082C60.2134 64.4858 60.8581 64.6615 61.9563 65.5715ZM54.5231 69.4414C55.3834 69.7832 56.0871 70.264 56.0871 70.5099C56.0871 70.8603 56.6853 70.9308 58.8541 70.8362C61.7961 70.7083 62.1063 70.7848 62.4537 71.7245C62.575 72.0535 62.8093 72.239 62.9745 72.1372C63.5071 71.8079 63.8528 73.7071 63.6604 75.9062C63.5473 77.1979 63.6053 78.1392 63.8064 78.2767C63.9896 78.4023 64.1739 79.0394 64.2157 79.6927C64.2784 80.6719 64.1557 80.9316 63.5173 81.1745C63.0915 81.3364 62.6498 81.6198 62.5358 81.8041C62.4115 82.0058 62.0374 82.0318 61.599 81.8697C60.805 81.576 59.2463 82.3397 59.5703 82.8638C59.6699 83.0253 59.2345 83.1574 58.6019 83.1574C57.9698 83.1574 57.2305 83.3796 56.9592 83.6508C56.6876 83.9224 56.2301 84.0539 55.9427 83.9435C55.655 83.8331 55.2176 83.9102 54.971 84.1149C54.3807 84.605 53.4503 84.2286 53.4503 83.4999C53.4503 83.1831 53.0864 82.5315 52.6421 82.0519C52.1974 81.5724 51.9179 81.1798 52.0208 81.1798C52.1236 81.1798 51.9539 80.7925 51.6437 80.3189C51.2943 79.7856 51.1292 79.0331 51.21 78.3413C51.2815 77.7272 51.2393 77.2246 51.1157 77.2246C50.9921 77.2246 51.0811 76.6718 51.3131 75.9965C51.6599 74.9886 51.6572 74.6567 51.298 74.1438C50.5781 73.1161 51.4697 71.4282 53.2894 70.3731C53.8642 70.0399 53.8738 69.9921 53.3679 69.9832C53.0505 69.9779 52.7911 69.9114 52.7911 69.8356C52.7911 69.7598 52.6932 69.4427 52.5738 69.1312C52.4542 68.8197 52.4921 68.6223 52.6576 68.6925C52.8234 68.7624 53.6629 69.0996 54.5231 69.4414ZM99.9509 74.0934C99.8603 75.0644 99.8543 75.0673 99.6256 74.2582L99.3926 73.4342L99.1684 74.2582C99.0452 74.7114 98.9598 75.5271 98.9789 76.071L99.0135 77.0598L99.265 76.071L99.5165 75.0822L99.5557 76.0545C99.5831 76.7397 99.6978 76.9237 99.944 76.6774C100.136 76.485 100.237 75.6026 100.168 74.7163C100.086 73.6589 100.011 73.4447 99.9509 74.0934ZM67.6232 75.6273C67.6232 76.1755 67.8348 76.6672 68.1176 76.7757C68.7145 77.0047 68.7797 77.5229 68.2 77.4296C67.6027 77.334 65.9752 76.2071 65.9752 75.8897C65.9752 75.741 66.1258 75.2229 66.3104 74.7381C66.5882 74.007 66.7286 73.9259 67.1344 74.2628C67.403 74.4859 67.6232 75.1 67.6232 75.6273ZM76.5884 74.3241C75.5933 75.3192 76.6038 76.8976 77.8198 76.247C78.5841 75.8379 78.654 75.4912 78.1589 74.566C77.77 73.8396 77.1658 73.7466 76.5884 74.3241ZM98.3022 80.0536C98.3181 80.4375 98.3962 80.5157 98.5013 80.253C98.5966 80.015 98.5847 79.7306 98.4753 79.6211C98.3659 79.5117 98.2881 79.7062 98.3022 80.0536ZM96.9838 83.02C96.9996 83.404 97.0778 83.4821 97.1829 83.2194C97.2782 82.9814 97.2663 82.697 97.1569 82.5875C97.0474 82.4781 96.9697 82.6726 96.9838 83.02ZM81.6023 83.4402C81.685 83.574 81.6224 83.8938 81.4635 84.1509C81.3046 84.4083 81.2944 84.7718 81.4411 84.959C81.5878 85.1466 81.864 85.7448 82.0555 86.2887C82.2539 86.8526 82.4144 87.0296 82.4292 86.7007C82.4731 85.731 82.9991 86.0563 83.4962 87.3599L83.9672 88.5959L84.0024 87.3599C84.0248 86.5873 83.8871 86.1239 83.6356 86.1239C83.2378 86.1239 81.7961 84.665 81.7961 84.2626C81.7961 84.1479 82.0278 83.8845 82.3112 83.6775C82.7598 83.3493 82.7377 83.2942 82.1392 83.2491C81.7615 83.2207 81.5199 83.3067 81.6023 83.4402ZM79.914 84.4758C80.0086 84.8384 79.9519 85.135 79.7875 85.135C79.6233 85.135 79.4889 84.8384 79.4889 84.4758C79.4889 84.1133 79.5459 83.8166 79.6151 83.8166C79.6846 83.8166 79.8191 84.1133 79.914 84.4758ZM84.7576 85.1387C83.983 85.7231 83.9757 85.7662 84.544 86.3941C84.9975 86.8955 85.0334 87.084 84.7002 87.2171C84.3762 87.347 84.3713 87.3968 84.6801 87.4162C84.9069 87.4304 85.0921 87.6647 85.0921 87.9367C85.0921 88.2086 85.279 88.4311 85.5071 88.4311C86.0644 88.4311 86.8195 89.6839 86.5374 90.1404C86.3858 90.3859 86.6079 90.4479 87.2213 90.3306C88.1073 90.1612 88.1254 90.1879 87.9339 91.3856C87.6989 92.8547 88.016 93.3309 88.5437 92.3019C88.7599 91.8804 88.7962 91.4756 88.6274 91.3606C88.4557 91.2436 88.4798 90.6233 88.6851 89.8803C89.0104 88.7017 88.9705 88.5369 88.1739 87.7748C87.6989 87.32 87.4326 87.1703 87.5826 87.4423C87.8176 87.8684 87.7784 87.874 87.2978 87.4845C86.5183 86.8519 86.603 86.4834 87.4817 86.6868C88.1956 86.8519 88.1927 86.8361 87.3993 86.2623C86.9461 85.9343 86.3469 85.4116 86.0674 85.1001C85.5878 84.5655 85.5146 84.5678 84.7576 85.1387ZM88.9036 87.5388C89.0275 87.8638 89.2118 88.0468 89.3133 87.9452C89.4148 87.844 89.3136 87.5781 89.0882 87.3543C88.7625 87.0312 88.725 87.0692 88.9036 87.5388ZM88.9669 90.0214C88.8637 90.4163 88.9138 90.6562 89.078 90.5544C89.2424 90.4529 89.3769 90.5517 89.3769 90.7739C89.3769 90.996 89.4544 91.1005 89.5487 91.0059C89.6432 90.9113 89.5935 90.4898 89.4376 90.0689L89.1545 89.3035L88.9669 90.0214ZM73.2132 90.0942C72.8935 90.2963 73.553 90.4004 75.1767 90.4037C76.5211 90.4064 77.5155 90.3029 77.386 90.1737C77.0254 89.8131 73.7561 89.7508 73.2132 90.0942ZM96.6664 90.5929C96.6453 91.1473 96.846 91.8889 97.112 92.2409C97.5356 92.8006 97.5972 92.8108 97.6064 92.3233C97.6124 92.0168 97.4529 91.6645 97.2521 91.5405C96.998 91.3833 97.0227 91.2294 97.3345 91.0316C97.6262 90.8471 97.6467 90.7465 97.3939 90.7432C97.1806 90.7406 96.9383 90.4789 96.8553 90.1615C96.7725 89.8441 96.6875 90.0382 96.6664 90.5929ZM83.8623 91.2963C84.1831 91.38 84.628 91.3744 84.8512 91.2841C85.0743 91.1938 84.8119 91.1256 84.2681 91.1322C83.7242 91.1388 83.5416 91.2126 83.8623 91.2963ZM96.9838 94.2265C96.9996 94.6105 97.0778 94.6886 97.1829 94.4259C97.2782 94.1879 97.2663 93.9035 97.1569 93.794C97.0474 93.6846 96.9697 93.8791 96.9838 94.2265ZM96.5633 95.2271C96.8876 95.3722 96.8474 95.5254 96.3991 95.8534C95.5919 96.4437 96.0599 96.8257 96.9265 96.2845C97.7383 95.7776 97.6618 95.2199 96.7656 95.1115C96.4182 95.0693 96.3269 95.1213 96.5633 95.2271ZM73.7432 98.0719C73.6671 98.48 73.5939 98.9246 73.5804 99.0607C73.5669 99.1969 73.3988 99.3079 73.207 99.3079C73.0151 99.3079 72.9495 99.1596 73.0616 98.9783C73.1737 98.7971 72.9228 98.6369 72.5043 98.6227C71.7943 98.5983 71.8042 98.5743 72.6496 98.2657C73.148 98.0835 73.556 97.7987 73.556 97.6326C73.556 97.4665 73.6292 97.3303 73.7188 97.3303C73.8082 97.3303 73.8194 97.6639 73.7432 98.0719ZM65.8298 100.121C66.1815 100.388 66.34 100.61 66.1821 100.616C66.0239 100.622 66.079 100.849 66.3048 101.121C66.7342 101.639 66.4956 101.732 64.8215 101.704C63.777 101.687 63.7507 101.667 63.3878 100.626C63.0506 99.6596 63.0667 99.6375 64.1165 99.6375C64.7068 99.6375 65.4778 99.8554 65.8298 100.121ZM88.4402 100.626C88.4402 101.08 88.515 101.265 88.6063 101.038C88.6979 100.812 88.6979 100.441 88.6063 100.214C88.515 99.9879 88.4402 100.173 88.4402 100.626ZM74.8744 101.592C74.8744 101.979 75.0883 102.274 75.3688 102.274C75.6407 102.274 75.8632 102.19 75.8632 102.086C75.8632 101.982 75.6407 101.675 75.3688 101.403C74.9295 100.964 74.8744 100.985 74.8744 101.592ZM88.4402 102.604C88.4402 103.057 88.515 103.243 88.6063 103.016C88.6979 102.79 88.6979 102.419 88.6063 102.192C88.515 101.966 88.4402 102.151 88.4402 102.604ZM67.2936 102.42C67.2936 102.5 67.1452 102.657 66.964 102.769C66.7827 102.881 66.6344 102.815 66.6344 102.623C66.6344 102.432 66.7827 102.274 66.964 102.274C67.1452 102.274 67.2936 102.34 67.2936 102.42ZM87.6333 103.263C87.7283 103.626 87.8627 103.922 87.9323 103.922C88.0015 103.922 88.0585 103.626 88.0585 103.263C88.0585 102.901 87.924 102.604 87.7599 102.604C87.5954 102.604 87.5387 102.901 87.6333 103.263ZM70.9192 103.263C70.9192 103.444 70.762 103.593 70.5701 103.593C70.3783 103.593 70.3127 103.444 70.4248 103.263C70.5369 103.082 70.6937 102.934 70.7738 102.934C70.8539 102.934 70.9192 103.082 70.9192 103.263ZM73.2264 103.593C73.2264 103.955 73.2834 104.252 73.3526 104.252C73.4222 104.252 73.5567 103.955 73.6516 103.593C73.7462 103.23 73.6895 102.934 73.525 102.934C73.3609 102.934 73.2264 103.23 73.2264 103.593ZM76.1928 104.233C76.1928 104.403 76.3395 104.633 76.5188 104.744C76.7054 104.859 76.7607 104.727 76.6483 104.434C76.4292 103.863 76.1928 103.759 76.1928 104.233ZM73.4463 105.391C73.4463 105.655 73.2485 105.947 73.0066 106.04C72.765 106.133 72.5672 106.003 72.5672 105.752C72.5672 105.501 72.7528 105.221 72.9792 105.129C73.206 105.038 73.4034 104.951 73.4186 104.937C73.4337 104.923 73.4463 105.127 73.4463 105.391ZM79.5149 105.763C79.5307 106.147 79.6088 106.225 79.714 105.962C79.8092 105.724 79.7974 105.44 79.6879 105.33C79.5785 105.221 79.5007 105.415 79.5149 105.763ZM75.6111 105.937C75.7007 106.188 75.6216 106.691 75.4351 107.054C75.1322 107.643 75.1543 107.665 75.6444 107.261C76.2785 106.738 76.3573 106.041 75.8204 105.709C75.593 105.568 75.5115 105.657 75.6111 105.937ZM85.517 107.219C85.4224 107.581 85.1442 107.878 84.8993 107.878C84.6191 107.878 84.5318 108.081 84.6639 108.426C84.8057 108.795 84.7483 108.896 84.4889 108.736C83.9685 108.415 84.0034 108.007 84.6336 107.045C85.2368 106.124 85.7757 106.23 85.517 107.219ZM87.8802 107.619C87.8084 107.991 87.6472 108.388 87.5219 108.499C87.3967 108.61 87.3855 108.447 87.4972 108.135C87.6089 107.824 87.5582 107.481 87.3848 107.374C86.8888 107.068 87.0173 106.56 87.5401 106.76C87.8057 106.862 87.9537 107.236 87.8802 107.619ZM90.3657 107.238C90.3657 107.409 90.1479 107.548 89.8816 107.548C89.5875 107.548 89.4719 107.355 89.5866 107.056C89.781 106.548 90.3657 106.685 90.3657 107.238ZM81.6863 107.438C81.5654 107.559 81.4665 107.811 81.4665 107.999C81.4665 108.205 81.6201 108.185 81.8564 107.949C82.071 107.735 82.1698 107.482 82.0762 107.389C81.9826 107.295 81.807 107.317 81.6863 107.438ZM91.5401 108.084C91.4538 108.56 91.2201 111.044 91.021 113.605C90.6077 118.915 90.5263 119.659 89.9966 122.969C89.6324 125.244 89.5269 125.447 87.9827 126.835C85.4837 129.082 82.2486 131.079 79.1593 132.282C73.9815 134.298 68.0401 133.913 58.2295 130.926C54.323 129.737 52.8807 129.122 51.9005 128.23C51.239 127.627 51.1902 127.346 51.3507 125.057C51.4473 123.675 51.53 122.211 51.5343 121.803C51.5389 121.395 51.6839 121.062 51.8566 121.062C52.0293 121.062 52.0791 121.21 51.967 121.391C51.855 121.573 52.0033 121.721 52.2967 121.721C52.59 121.721 52.7383 121.573 52.6263 121.391C52.5142 121.21 52.6437 121.062 52.9143 121.062C53.1846 121.062 53.5063 121.378 53.6289 121.764C53.7825 122.249 53.9288 122.343 54.0996 122.066C54.2769 121.779 54.417 121.837 54.5933 122.27C54.8306 122.853 54.8478 122.852 55.0696 122.257C55.2822 121.688 55.3415 121.682 55.8349 122.175C56.4905 122.83 56.7463 122.852 56.7463 122.251C56.7463 121.556 57.7272 121.296 57.7733 121.978C57.8076 122.487 57.8274 122.484 57.9652 121.953C58.0868 121.485 58.7028 121.945 60.9049 124.147C63.8413 127.083 64.7652 127.732 64.603 126.745C64.4923 126.073 64.8832 125.347 65.3548 125.347C65.5361 125.347 65.5991 125.485 65.4949 125.653C65.3904 125.822 65.4597 126.056 65.6482 126.172C65.837 126.289 65.9508 126.197 65.901 125.968C65.7856 125.438 68.2056 124.967 68.3944 125.482C68.4861 125.732 68.7379 125.716 69.2237 125.429C69.6074 125.203 70.1156 125.017 70.3529 125.017C70.6588 125.017 70.7791 124.488 70.7656 123.204C70.7452 121.256 70.9479 120.956 71.4887 122.133C71.815 122.844 71.8421 122.826 72.1364 121.721C72.3134 121.057 72.7617 120.408 73.1925 120.194C73.6041 119.988 74.114 119.632 74.3253 119.403C74.6239 119.08 74.6065 119.046 74.2465 119.252C73.9265 119.434 73.8606 119.391 74.0329 119.112C74.1697 118.891 74.4875 118.788 74.739 118.885C74.9904 118.982 75.1608 118.88 75.1177 118.66C75.0745 118.44 75.2831 118.3 75.5814 118.349C75.8794 118.398 76.4911 118.001 76.9404 117.467C77.4358 116.878 77.8764 116.615 78.0597 116.798C78.243 116.981 78.797 116.975 79.4668 116.783C80.0742 116.609 80.6988 116.545 80.8541 116.641C81.242 116.881 81.2084 116.54 80.7591 115.684C80.3844 114.969 80.387 114.969 81.0887 115.592C81.5185 115.973 81.7961 116.063 81.7961 115.82C81.7961 115.6 81.9444 115.511 82.1257 115.623C82.307 115.735 82.4553 115.67 82.4553 115.478C82.4553 115.286 82.6306 115.166 82.8452 115.211C83.0598 115.257 83.4388 114.886 83.6873 114.387C84.0878 113.584 84.6544 113.297 85.5324 113.451C85.6841 113.478 85.8855 113.204 85.98 112.842C86.0746 112.48 86.4326 112.095 86.7757 111.986C87.1188 111.877 87.3993 111.592 87.3993 111.352C87.3993 110.928 88.2995 110.356 88.8001 110.462C88.9363 110.491 89.0473 110.373 89.0473 110.2C89.0473 110.027 89.3809 109.522 89.7889 109.078C90.197 108.633 90.7217 108.034 90.9554 107.744C91.5596 106.997 91.7204 107.09 91.5401 108.084ZM81.7961 109.031C81.7961 109.303 81.9398 109.526 82.1155 109.526C82.2908 109.526 82.3491 109.303 82.245 109.031C82.1405 108.759 81.9968 108.537 81.9256 108.537C81.8544 108.537 81.7961 108.759 81.7961 109.031ZM64.9863 110.001C64.9863 110.081 64.838 110.238 64.6567 110.35C64.4755 110.462 64.3271 110.396 64.3271 110.204C64.3271 110.012 64.4755 109.855 64.6567 109.855C64.838 109.855 64.9863 109.92 64.9863 110.001ZM78.9925 110.516C78.6635 110.88 78.329 111.112 78.2492 111.033C78.0564 110.84 78.9127 109.884 79.2927 109.868C79.4569 109.861 79.3217 110.153 78.9925 110.516ZM81.0011 113.046C80.3722 113.63 80.1481 113.707 80.1481 113.341C80.1481 113.068 80.4447 112.686 80.8073 112.492C81.1698 112.298 81.4866 111.811 81.5113 111.409C81.5538 110.716 81.5637 110.719 81.7051 111.467C81.8093 112.017 81.5967 112.494 81.0011 113.046ZM77.9509 113.778C77.7996 113.891 77.5646 114.117 77.4288 114.281C77.293 114.445 77.1816 114.263 77.1816 113.876C77.1816 113.369 77.3277 113.228 77.7037 113.372C77.9908 113.482 78.1019 113.665 77.9509 113.778ZM77.4288 116.144C77.1114 116.329 76.852 116.695 76.852 116.958C76.852 117.221 76.6114 117.436 76.3174 117.436C75.9074 117.436 75.8682 117.333 76.1497 116.994C76.3514 116.751 76.4067 116.43 76.2723 116.282C76.1381 116.133 76.2136 116.119 76.44 116.249C76.6668 116.379 76.852 116.329 76.852 116.137C76.852 115.945 77.1114 115.793 77.4288 115.798C77.9783 115.808 77.9783 115.824 77.4288 116.144ZM75.1368 117.092C74.9156 117.446 74.6707 117.672 74.5926 117.594C74.4515 117.453 75.1697 116.447 75.412 116.447C75.4819 116.447 75.3583 116.737 75.1368 117.092ZM101.179 124.531C101.077 124.633 100.893 124.45 100.769 124.125C100.591 123.655 100.628 123.617 100.954 123.94C101.179 124.164 101.281 124.43 101.179 124.531ZM102.457 129.034C102.351 129.297 102.273 129.219 102.257 128.835C102.243 128.487 102.321 128.293 102.431 128.402C102.54 128.512 102.552 128.796 102.457 129.034ZM102.46 130.861C102.376 131.182 102.302 130.999 102.296 130.455C102.289 129.912 102.357 129.649 102.448 129.872C102.538 130.095 102.544 130.54 102.46 130.861Z" fill="#091637"/>
</g>
</svg>
